<mxfile host="app.diagrams.net" modified="2024-04-18T21:09:01.348Z" agent="Mozilla/5.0 (Windows NT 10.0; Win64; x64) AppleWebKit/537.36 (KHTML, like Gecko) Chrome/123.0.0.0 Safari/537.36 Edg/123.0.0.0" etag="6WndaDfiJvSx3qOBmt2u" version="24.2.5" type="github">
  <diagram name="Page-1" id="SCUyPC4BdGzd0Jcr5d1O">
    <mxGraphModel dx="654" dy="787" grid="1" gridSize="10" guides="1" tooltips="1" connect="1" arrows="1" fold="1" page="1" pageScale="1" pageWidth="1200" pageHeight="1920" math="0" shadow="0">
      <root>
        <mxCell id="0" />
        <mxCell id="1" parent="0" />
        <mxCell id="6NUXaT5FduPJHglQ4xDG-3" value="&lt;div&gt;&lt;span style=&quot;background-color: initial;&quot;&gt;Пользователь&lt;/span&gt;&lt;br&gt;&lt;/div&gt;" style="html=1;dashed=0;whiteSpace=wrap;shape=mxgraph.dfd.externalEntity" vertex="1" parent="1">
          <mxGeometry x="230" y="150" width="140" height="90" as="geometry" />
        </mxCell>
        <mxCell id="6NUXaT5FduPJHglQ4xDG-4" value="Id" style="autosize=1;part=1;resizable=0;strokeColor=inherit;fillColor=inherit;gradientColor=inherit;" vertex="1" parent="6NUXaT5FduPJHglQ4xDG-3">
          <mxGeometry width="20" height="20" relative="1" as="geometry">
            <mxPoint x="15" y="15" as="offset" />
          </mxGeometry>
        </mxCell>
        <mxCell id="6NUXaT5FduPJHglQ4xDG-5" value="Разработчик" style="html=1;dashed=0;whiteSpace=wrap;shape=mxgraph.dfd.externalEntity" vertex="1" parent="1">
          <mxGeometry x="430" y="220" width="150" height="100" as="geometry" />
        </mxCell>
        <mxCell id="6NUXaT5FduPJHglQ4xDG-6" value="Id" style="autosize=1;part=1;resizable=0;strokeColor=inherit;fillColor=inherit;gradientColor=inherit;" vertex="1" parent="6NUXaT5FduPJHglQ4xDG-5">
          <mxGeometry width="20" height="20" relative="1" as="geometry">
            <mxPoint x="15" y="15" as="offset" />
          </mxGeometry>
        </mxCell>
        <mxCell id="6NUXaT5FduPJHglQ4xDG-7" value="" style="html=1;dashed=0;whiteSpace=wrap;" vertex="1" parent="1">
          <mxGeometry x="230" y="320" width="100" height="50" as="geometry" />
        </mxCell>
        <mxCell id="6NUXaT5FduPJHglQ4xDG-8" value="" style="html=1;dashed=0;whiteSpace=wrap;shape=mxgraph.dfd.dataStoreID;align=left;spacingLeft=3;points=[[0,0],[0.5,0],[1,0],[0,0.5],[1,0.5],[0,1],[0.5,1],[1,1]];" vertex="1" parent="1">
          <mxGeometry x="130" y="560" width="100" height="30" as="geometry" />
        </mxCell>
        <mxCell id="6NUXaT5FduPJHglQ4xDG-9" value="" style="html=1;dashed=0;whiteSpace=wrap;shape=mxgraph.dfd.dataStoreID;align=left;spacingLeft=3;points=[[0,0],[0.5,0],[1,0],[0,0.5],[1,0.5],[0,1],[0.5,1],[1,1]];" vertex="1" parent="1">
          <mxGeometry x="390" y="610" width="100" height="30" as="geometry" />
        </mxCell>
        <mxCell id="6NUXaT5FduPJHglQ4xDG-10" value="" style="html=1;dashed=0;whiteSpace=wrap;shape=mxgraph.dfd.dataStoreID;align=left;spacingLeft=3;points=[[0,0],[0.5,0],[1,0],[0,0.5],[1,0.5],[0,1],[0.5,1],[1,1]];" vertex="1" parent="1">
          <mxGeometry x="270" y="510" width="100" height="30" as="geometry" />
        </mxCell>
        <mxCell id="6NUXaT5FduPJHglQ4xDG-11" value="" style="html=1;dashed=0;whiteSpace=wrap;shape=mxgraph.dfd.dataStoreID;align=left;spacingLeft=3;points=[[0,0],[0.5,0],[1,0],[0,0.5],[1,0.5],[0,1],[0.5,1],[1,1]];" vertex="1" parent="1">
          <mxGeometry x="80" y="450" width="100" height="30" as="geometry" />
        </mxCell>
      </root>
    </mxGraphModel>
  </diagram>
</mxfile>
